HIERARCHY
ROOT Hips
{
	OFFSET 0.000000 0.000000 0.000000
	CHANNELS 6 Xposition Yposition Zposition Zrotation Yrotation Xrotation 
	JOINT LHipJoint
	{
		OFFSET 0.000000 0.000000 0.000000
		CHANNELS 3 Zrotation Yrotation Xrotation
		JOINT LeftUpLeg
		{
			OFFSET 1.363060 -1.794630 0.839290
			CHANNELS 3 Zrotation Yrotation Xrotation
			JOINT LeftLeg
			{
				OFFSET 2.448110 -6.726130 0.000000
				CHANNELS 3 Zrotation Yrotation Xrotation
				JOINT LeftFoot
				{
					OFFSET 2.562200 -7.039590 0.000000
					CHANNELS 3 Zrotation Yrotation Xrotation
					JOINT LeftToeBase
					{
						OFFSET 0.157640 -0.433110 2.322550
						CHANNELS 3 Zrotation Yrotation Xrotation
						End Site
						{
							OFFSET 0.000000 0.000000 0.000000
						}
					}
				}
			}
		}
	}
	JOINT RHipJoint
	{
		OFFSET 0.000000 0.000000 0.000000
		CHANNELS 3 Zrotation Yrotation Xrotation
		JOINT RightUpLeg
		{
			OFFSET -1.305520 -1.794630 0.839290
			CHANNELS 3 Zrotation Yrotation Xrotation
			JOINT RightLeg
			{
				OFFSET -2.542530 -6.985550 0.000000
				CHANNELS 3 Zrotation Yrotation Xrotation
				JOINT RightFoot
				{
					OFFSET -2.568260 -7.056230 0.000000
					CHANNELS 3 Zrotation Yrotation Xrotation
					JOINT RightToeBase
					{
						OFFSET -0.164730 -0.452590 2.363150
						CHANNELS 3 Zrotation Yrotation Xrotation
						End Site
						{
							OFFSET 0.000000 0.000000 0.000000
						}
					}
				}
			}
		}
	}
}
MOTION
Frames: 30
Frame Time: 0.008333
-0.268839 17.107923 -0.682015 -26.614695 83.351963 -27.605695 -10.001817 2.129093 0.572251 -16.991611 18.776378 -23.875136 -2.402212 -0.169564 16.136511 2.752388 14.975361 -11.922551 -1.087100 0.000000 -2.411799 10.568207 -4.481073 -0.422458 -2.310498 -14.273316 6.139614 0.174181 -2.521369 32.613686 0.308508 15.745138 21.764354 7.337499 0.000000 -85.806800
-0.112713 17.098134 -0.710149 -28.113856 83.733521 -29.135850 -9.964568 2.204207 0.564699 -17.012358 18.515124 -23.604269 -2.396102 -0.085495 17.043253 2.734064 14.819121 -12.196815 -1.166000 0.000000 -1.310200 10.749620 -4.393129 -0.492733 -2.803812 -14.652996 4.846908 -0.043616 -2.602416 35.358972 0.135310 15.762484 23.344063 7.807801 -0.000000 -84.825100
0.040055 17.087934 -0.738750 -30.182590 84.150942 -31.225159 -9.918598 2.273780 0.556057 -17.038917 18.239888 -23.323873 -2.392517 -0.006802 17.918552 2.707512 14.605864 -12.485823 -1.244400 0.000000 -0.371199 10.926734 -4.287172 -0.579195 -3.219335 -15.053820 3.525407 -0.246131 -2.674413 38.043423 -0.049831 15.133270 24.632193 7.881901 -0.000000 -83.431100
0.189837 17.077602 -0.768267 -33.035071 84.590638 -34.094786 -9.864066 2.334688 0.545477 -17.059078 17.954222 -23.002251 -2.389604 0.062300 18.729031 2.674632 14.346035 -12.795239 178.676300 -0.000000 -0.382100 11.099186 -4.167985 -0.682454 -3.558244 -15.473666 2.199852 -0.431434 -2.742927 40.619331 -0.243388 13.825089 25.550094 7.497200 0.000000 -81.716500
0.337181 17.067560 -0.799758 -37.093026 85.017358 -38.160092 -9.805682 2.377926 0.531703 -17.047424 17.684050 -22.649489 -2.385069 0.117261 19.470686 2.636151 14.038547 -13.142571 178.592000 -0.000000 -0.980800 11.261629 -4.048725 -0.791094 -3.781384 -15.878208 0.864916 -0.596299 -2.814201 43.051900 -0.444397 11.842812 26.022547 6.638000 0.000000 -79.691800
0.482547 17.058159 -0.833249 -42.479930 85.422349 -43.556653 -9.747330 2.401806 0.512989 -17.010102 17.425350 -22.222310 -2.376847 0.154617 20.103409 2.596139 13.712522 -13.517372 178.504400 0.000000 -1.396599 11.411169 -3.932625 -0.907268 -3.920740 -16.270565 -0.447776 -0.738692 -2.891520 45.286278 -0.652004 9.293616 25.997582 5.377000 -0.000000 -77.419101
0.626517 17.049897 -0.869275 -49.352997 85.777155 -50.438793 -9.701489 2.400717 0.489012 -16.941409 17.192667 -21.723722 -2.363165 0.171987 20.618956 2.556905 13.381956 -13.920880 178.412600 0.000000 -1.663400 11.535055 -3.829132 -1.021773 -3.967363 -16.621147 -1.737745 -0.854856 -2.977758 47.284061 -0.865009 6.318310 25.440880 3.832900 0.000001 -74.864900
0.769543 17.043196 -0.908119 -57.476648 86.060075 -58.571052 -9.683145 2.375701 0.460844 -16.845989 16.992759 -21.152001 -2.343982 0.170180 21.004559 2.521272 13.067548 -14.343572 178.317600 -0.000001 -1.791200 11.618027 -3.739946 -1.128331 -3.929961 -16.905129 -2.998452 -0.942862 -3.071298 49.006501 -1.080611 3.106767 24.354817 2.167800 -0.000000 -72.052600
0.911955 17.038439 -0.949842 -66.165202 86.257195 -67.267435 -9.702309 2.335740 0.430770 -16.732364 16.829414 -20.510129 -2.321765 0.153541 21.249690 2.492011 12.790208 -14.772170 178.221300 -0.000001 -1.793900 11.649577 -3.658194 -1.221324 -3.821553 -17.096845 -4.223723 -1.003527 -3.165091 50.423430 -1.293912 -0.131504 22.776434 0.554800 0.000000 -68.954600
1.054096 17.035938 -0.994454 -74.534098 86.366291 -75.641745 -9.757853 2.293507 0.401641 -16.604792 16.703070 -19.806659 -2.299745 0.127701 21.350518 2.470995 12.565045 -15.192161 178.125900 0.000000 -1.688800 11.630680 -3.573848 -1.294994 -3.650779 -17.175040 -5.410108 -1.038493 -3.249147 51.515181 -1.497843 -3.195314 20.771028 -0.853300 0.000000 -65.490800
1.196067 17.035906 -1.041828 -81.866147 86.398125 -82.971368 -9.839936 2.258314 0.375673 -16.464157 16.605921 -19.057490 -2.279598 0.097125 21.313665 2.459272 12.401579 -15.588655 178.033401 -0.000000 -1.492300 11.571117 -3.479551 -1.341346 -3.411726 -17.114517 -6.555197 -1.048671 -3.312812 52.254752 -1.688964 -5.947166 18.479965 -1.963800 0.000000 -62.020500
1.337849 17.038423 -1.091596 -87.919015 86.376436 -89.015787 -9.934056 2.234808 0.352728 -16.315644 16.523877 -18.259133 -2.261137 0.063601 21.139946 2.456432 12.302731 -15.942398 177.947200 -0.000000 -1.215900 11.486587 -3.373595 -1.360590 -3.121969 -16.925314 -7.651772 -1.032205 -3.352468 52.645123 -1.857128 -8.258447 15.997358 -2.722100 -0.000000 -58.375399
1.479383 17.043393 -1.143380 -92.861194 86.319314 -93.939619 -10.032584 2.221432 0.333614 -16.161040 16.438883 -17.418440 -2.242435 0.027423 20.841611 2.461023 12.263815 -16.238832 177.870300 -0.000000 -0.871901 11.385553 -3.259632 -1.351183 -2.784467 -16.614070 -8.697784 -0.987311 -3.366677 52.686941 -1.996832 -10.081653 13.460583 -3.142500 0.000000 -54.736300
1.620448 17.050666 -1.196715 -97.040225 86.240062 -98.089962 -10.131527 2.215308 0.318805 -16.004585 16.332472 -16.537017 -2.221587 -0.011450 20.428900 2.470926 12.276018 -16.465124 177.805900 -0.000000 -0.471200 11.272936 -3.141420 -1.315790 -2.410187 -16.200583 -9.690039 -0.913775 -3.356558 52.394334 -2.103225 -11.410465 10.988868 -3.277200 0.000000 -51.210800
1.760811 17.059879 -1.251132 -100.875872 86.144083 -101.884382 -10.231077 2.213285 0.309978 -15.848642 16.185090 -15.620784 -2.197042 -0.052545 19.918838 2.483769 12.326981 -16.615072 177.756701 -0.000001 -0.022800 11.149179 -3.021995 -1.257458 -2.003654 -15.704583 -10.627703 -0.814520 -3.323240 51.783061 -2.176763 -12.294681 8.710759 -3.212400 -0.000000 -48.190800
1.900190 17.070624 -1.306067 -104.650546 86.033127 -105.607828 -10.329990 2.214404 0.306826 -15.697489 15.987840 -14.667908 -2.168715 -0.095140 19.320227 2.496947 12.402411 -16.684714 -2.274599 0.000000 -0.461800 11.016591 -2.901817 -1.183294 -1.579231 -15.156258 -11.510267 -0.694026 -3.269469 50.886616 -2.217306 -12.788711 6.694099 -3.024599 -0.000000 -45.668900
2.038363 17.082404 -1.361012 -108.582898 85.903107 -109.479701 -10.428154 2.218265 0.309956 -15.553014 15.733356 -13.682622 -2.137076 -0.138019 18.648237 2.508147 12.487254 -16.677251 -2.286499 0.000000 -0.972199 10.876160 -2.780497 -1.098985 -1.142645 -14.579902 -12.340519 -0.558875 -3.197186 49.736311 -2.230063 -12.979605 5.002375 -2.789300 0.000000 -43.872100
2.175110 17.094722 -1.415509 -112.746714 85.746821 -113.575271 -10.524321 2.225629 0.318928 -15.416548 15.423298 -12.669317 -2.103436 -0.179942 17.916128 2.515237 12.566378 -16.599494 -2.278500 0.000000 -1.497401 10.730244 -2.656654 -1.010505 -0.699849 -13.999649 -13.124430 -0.415580 -3.108672 48.369970 -2.221276 -12.953367 3.654282 -2.558500 0.000000 -42.851700
2.310260 17.106966 -1.469209 -117.153659 85.553654 -117.908915 -10.617647 2.237404 0.333038 -15.285932 15.063077 -11.634162 -2.069320 -0.219397 17.142537 2.516310 12.624504 -16.463963 -2.251499 -0.000001 -2.027600 10.580788 -2.529393 -0.923200 -0.252817 -13.435374 -13.864909 -0.269382 -3.006062 46.823981 -2.198290 -12.792359 2.629324 -2.361500 0.000000 -42.526800
2.443842 17.118709 -1.521727 -121.670956 85.317580 -122.348204 -10.703688 2.255207 0.350478 -15.164735 14.665672 -10.583159 -2.036738 -0.255849 16.337487 2.510275 12.651000 -16.281119 -2.207000 -0.000000 -2.552900 10.433146 -2.396902 -0.840460 0.192653 -12.902703 -14.573263 -0.123898 -2.891700 45.138042 -2.168037 -12.563712 1.879455 -2.208700 -0.000000 -42.729800
2.575883 17.129541 -1.572815 -126.169468 85.031041 -126.765028 -10.780019 2.279476 0.369363 -15.051091 14.245840 -9.525302 -2.007261 -0.288804 15.516865 2.495974 12.634404 -16.064668 -2.147600 -0.000000 -3.067500 10.290596 -2.259149 -0.763872 0.635980 -12.409467 -15.255171 0.019324 -2.767475 43.343967 -2.137138 -12.322654 1.340738 -2.099400 0.000000 -43.248500
2.706552 17.139123 -1.622363 -130.514212 84.690995 -131.023786 -10.844075 2.310180 0.387323 -14.944765 13.820873 -8.470019 -1.982302 -0.318294 14.694771 2.472579 12.565703 -15.826652 -2.076000 -0.000000 -3.569300 10.156345 -2.116729 -0.692750 1.075560 -11.956639 -15.917306 0.160172 -2.634956 41.467875 -2.110871 -12.107532 0.948360 -2.027100 0.000000 -43.887900
2.836083 17.147295 -1.670284 -134.604558 84.298390 -135.022456 -10.894333 2.346630 0.402358 -14.845689 13.406849 -7.427248 -1.962926 -0.344740 13.883905 2.439543 12.438209 -15.577326 -1.995100 0.000001 -4.061099 10.032420 -1.971100 -0.624327 1.508976 -11.538545 -16.565032 0.299285 -2.495238 39.529768 -2.092776 -11.940283 0.646749 -1.983700 0.000000 -44.498900
2.964778 17.153967 -1.716574 -138.384702 83.858513 -138.702653 -10.930339 2.387762 0.412907 -14.755420 13.016393 -6.406341 -1.949789 -0.368770 13.093371 2.396738 12.249271 -15.322303 -1.907000 0.000001 -4.551100 9.919606 -1.823936 -0.554609 1.932677 -11.144798 -17.203685 0.437515 -2.348905 37.543461 -2.084325 -11.827142 0.396168 -1.962000 0.000000 -44.976700
3.092858 17.159078 -1.761300 -141.843261 83.376398 -142.053097 -10.953751 2.432684 0.417379 -14.671298 12.663214 -5.416665 -1.943663 -0.390305 12.338784 2.343256 11.991583 -15.069221 -1.813800 0.000000 -5.050700 9.817071 -1.677635 -0.478921 2.343779 -10.761571 -17.832251 0.575292 -2.195904 35.517664 -2.085200 -11.763369 0.174060 -1.956000 -0.000000 -45.296501
3.220745 17.162783 -1.804538 -144.998291 82.862978 -145.087797 -10.965149 2.480680 0.416248 -14.598001 12.348482 -4.463403 -1.944517 -0.410076 11.620410 2.279955 11.670808 -14.814952 -1.716300 -0.000000 -5.576700 9.724579 -1.533409 -0.392986 2.735535 -10.377835 -18.457425 0.712497 -2.036377 33.462728 -2.092922 -11.732437 -0.024448 -1.961800 0.000001 -45.422300
3.348714 17.165185 -1.846445 -147.884314 82.325260 -147.841466 -10.966549 2.531450 0.409888 -14.535361 12.073735 -3.550101 -1.952372 -0.427870 10.945067 2.206922 11.287778 -14.558744 -1.615200 0.000000 -6.145501 9.641120 -1.392933 -0.293613 3.103446 -9.984808 -19.079636 0.848477 -1.870435 31.387592 -2.103632 -11.713640 -0.190683 -1.977000 -0.000001 -45.385100
3.476989 17.166390 -1.887181 -150.541355 81.769107 -150.354999 -10.959709 2.585065 0.399615 -14.483688 11.834770 -2.676736 -1.966822 -0.443349 10.315435 2.124732 10.847091 -14.296070 -1.510500 0.000001 -6.772700 9.566082 -1.257408 -0.179404 3.443623 -9.580193 -19.700749 0.982324 -1.698706 29.304017 -2.112438 -11.684254 -0.307574 -2.001000 0.000000 -45.230200
3.605810 17.166577 -1.926925 -153.003744 81.197619 -152.665003 -10.946417 2.641776 0.387124 -14.442106 11.624365 -1.840515 -1.987138 -0.455999 9.732193 2.034233 10.355066 -14.021635 -1.402400 -0.000000 -7.470000 9.499007 -1.127807 -0.051264 3.754734 -9.168852 -20.322150 1.113307 -1.522458 27.226555 -2.113915 -11.622104 -0.355388 -2.033400 0.000000 -45.020401
3.735306 17.165844 -1.965920 -155.296160 80.610822 -154.800646 -10.928338 2.702019 0.374306 -14.408114 11.433882 -1.035625 -2.012271 -0.465045 9.195691 1.936438 9.819005 -13.729769 -1.291000 -0.000000 -8.243000 9.439633 -1.004960 0.087687 4.038790 -8.762887 -20.944075 1.241219 -1.343564 25.171990 -2.102860 -11.508196 -0.317678 -2.073400 0.000000 -44.829300
